<mxfile host="app.diagrams.net" agent="Mozilla/5.0 (Macintosh; Intel Mac OS X 10_15_7) AppleWebKit/537.36 (KHTML, like Gecko) Chrome/140.0.0.0 Safari/537.36" version="28.2.4">
  <diagram name="Page-1" id="-kwj2obDayBQRwjzfFNx">
    <mxGraphModel dx="785" dy="544" grid="1" gridSize="10" guides="1" tooltips="1" connect="1" arrows="1" fold="1" page="1" pageScale="1" pageWidth="850" pageHeight="1100" math="0" shadow="0">
      <root>
        <mxCell id="0" />
        <mxCell id="1" parent="0" />
        <mxCell id="g03gRUFB21H2hLZg3OSJ-1" value="Host Exclusive Dinners&#xa;for VPs &amp;amp; CTOs" style="whiteSpace=wrap;strokeWidth=2;sketch=1;curveFitting=1;jiggle=2;" vertex="1" parent="1">
          <mxGeometry x="20" y="20" width="220" height="78" as="geometry" />
        </mxCell>
        <mxCell id="g03gRUFB21H2hLZg3OSJ-2" value="Deep Relationships&#xa;with Key Accounts" style="whiteSpace=wrap;strokeWidth=2;sketch=1;curveFitting=1;jiggle=2;" vertex="1" parent="1">
          <mxGeometry x="33" y="171" width="195" height="78" as="geometry" />
        </mxCell>
        <mxCell id="g03gRUFB21H2hLZg3OSJ-3" value="Significant Enterprise&#xa;Sales Pipeline" style="whiteSpace=wrap;strokeWidth=2;sketch=1;curveFitting=1;jiggle=2;" vertex="1" parent="1">
          <mxGeometry x="23" y="321" width="214" height="78" as="geometry" />
        </mxCell>
        <mxCell id="g03gRUFB21H2hLZg3OSJ-4" value="Builds" style="curved=1;startArrow=none;endArrow=block;exitX=0.5;exitY=1;entryX=0.5;entryY=-0.01;rounded=0;sketch=1;curveFitting=1;jiggle=2;" edge="1" parent="1" source="g03gRUFB21H2hLZg3OSJ-1" target="g03gRUFB21H2hLZg3OSJ-2">
          <mxGeometry relative="1" as="geometry">
            <Array as="points" />
          </mxGeometry>
        </mxCell>
        <mxCell id="g03gRUFB21H2hLZg3OSJ-5" value="Sources" style="curved=1;startArrow=none;endArrow=block;exitX=0.5;exitY=0.99;entryX=0.5;entryY=0;rounded=0;sketch=1;curveFitting=1;jiggle=2;" edge="1" parent="1" source="g03gRUFB21H2hLZg3OSJ-2" target="g03gRUFB21H2hLZg3OSJ-3">
          <mxGeometry relative="1" as="geometry">
            <Array as="points" />
          </mxGeometry>
        </mxCell>
      </root>
    </mxGraphModel>
  </diagram>
</mxfile>
